# xmcd
#
# Track frame offsets:
# 150
# 11850
# 25552
# 43325
# 56825
# 69745
# 84562
# 97942
# 110497
# 127865
# 140227
# 150747
#
# Disc length: 2189 seconds
#
#
# Revision: 1
# Processed by: cddbd v1.5.1PL0 Copyright (c) Steve Scherf et al.
# Submitted via: FreeRIP 2.942 
#
DISCID=a3088b0c
DTITLE=Special Consensus - Route 10
DYEAR=2002
DGENRE=Bluegrass
TTITLE0=Say You'll Stay In My Arms
TTITLE1=If I Could Only Have Your Love
TTITLE2=Amy And Trevor
TTITLE3=Rounder's Spirit
TTITLE4=This Ain't Alabama, Uncle George
TTITLE5=I'll Believe The Lie
TTITLE6=Bobby And Sarah
TTITLE7=Come Unto Me
TTITLE8=Route 10, Box 782
TTITLE9=The Old Man In The Park
TTITLE10=Chahill Special
TTITLE11=Carolina In The Pines
EXTD=
EXTT0=
EXTT1=
EXTT2=
EXTT3=
EXTT4=
EXTT5=
EXTT6=
EXTT7=
EXTT8=
EXTT9=
EXTT10=
EXTT11=
PLAYORDER=
